<svg xmlns="http://www.w3.org/2000/svg" height="800" width="800">
	<path d="M428.567517 362.756542c-7.69196-2.64664-10.83957-4.01331-15.92583-6.91488-.78833-.44972-1.93499-1.07048-2.54813-1.37947-.61315-.30899-1.29482-.73158-1.51484-.93908-.22002-.20751-.69429-.47068-1.05393-.58482-.35964-.11415-1.49849-.76854-2.53077-1.45419-1.03228-.68566-1.94218-1.24666-2.022-1.24666-.12553 0-3.59732-2.21997-4.98209-3.1857-.44621-.31119-2.00751-1.3359-3.15955-2.07368-1.95093-1.24941-2.57719-1.69002-3.84782-2.70714-.78832-.63105-2.65165-1.94949-4.14071-2.92986-1.48907-.98037-3.70043-2.66018-4.91415-3.73289-1.21372-1.07272-3.43537-2.7624-4.93701-3.75484-1.50163-.99245-2.80191-1.89818-2.8895-2.01275-.0876-.11457-1.01926-.80428-2.07036-1.53269-1.50162-1.04061-12.55756-9.29467-14.01473-10.46301-1.24466-.99795-9.53203-7.01396-11.32114-8.2183-.78074-.52555-1.60682-1.20638-1.83573-1.51295-.22891-.30657-.56108-.55741-.73815-.55741-.27665 0-1.39354-.82963-4.62182-3.43313-.37395-.30158-1.08491-.83499-1.57992-1.18536-.49501-.35036-1.65619-1.24619-2.58039-1.99072-.9242-.74454-1.74769-1.3537-1.82998-1.3537-.38448 0-3.76049-2.41252-4.56867-3.26479-.29071-.30658-.64128-.55741-.77905-.55741-.41193 0-2.79682-1.8196-5.09576-3.88792-1.64164-1.47695-2.15657-2.14358-2.15657-2.79189 0-1.25277 1.94703-2.09964 5.89256-2.563 1.75184-.20574 3.25683-.41779 3.34442-.47123.0876-.0534 2.09425-.26191 4.45923-.46328 3.85963-.32863 7.11179-.83265 12.42215-1.92519.96351-.19823 3.1135-.56676 4.77775-.81895 1.66424-.2522 3.38423-.6001 3.82219-.77312.43796-.17301 1.86159-.46235 3.16362-.64296 1.30203-.18062 3.02201-.56127 3.8222-.8459 1.0172-.36182 2.63926-.52738 5.3919-.55032l3.93703-.0328 1.10962 1.27407c.61029.70073 1.63361 2.0613 2.27405 3.02347.64043.96217 2.66941 3.63801 4.50884 5.94631 1.83944 2.3083 3.55943 4.51107 3.8222 4.89505.26278.38398 1.76777 2.35103 3.34443 4.37122 6.38832 8.18546 9.61811 12.11794 11.45021 13.9414 3.42298 3.4068 5.88964 6.49158 5.90314 7.3824.003.21028.19004.49694.41523.63704.22518.14009.97335.97137 1.6626 1.84729.68924.87593 1.75916 2.17379 2.37759 2.88416 1.17393 1.34844 2.8119 3.27879 5.87089 6.91885.99771 1.18723 2.13078 2.62539 2.51794 3.19589.38716.57051.88343 1.24747 1.10283 1.50434.73951.86584 1.69968 2.20104 3.48353 4.84418.97632 1.44663 1.86302 2.70189 1.97044 2.78949.10742.0876.56408.73258 1.0148 1.43332 1.01864 1.5837 2.8423 4.31989 6.09733 9.14834 3.53586 5.24503 3.77792 6.63792 1.22689 7.05996-1.54777.25606-1.87323.22425-3.52701-.34478zm-5.09135-7.10694c.55691-.29805.56845-.42621.16042-1.78196-.2418-.80345-.66459-1.70938-.93952-2.01318-.27494-.3038-.49988-.67217-.49988-.8186 0-.46165-4.17232-6.53047-7.33732-10.67243-1.67329-2.1898-3.45369-4.69812-3.95644-5.57404-.84853-1.47834-3.22263-4.78863-4.22607-5.89256-1.5633-1.71983-2.79154-3.25341-3.82648-4.77774-.65418-.96352-1.27316-1.82351-1.37552-1.9111-.10236-.0876-.95154-1.16259-1.88707-2.38888-1.71591-2.24922-2.03604-2.64378-3.12086-3.84653-.32809-.36375-.67504-.86596-.771-1.11603-.16058-.41848-2.50347-3.40428-3.85273-4.90996-.96231-1.07387-1.34241-1.5385-2.47664-3.0274-.60054-.78833-1.1758-1.50499-1.27837-1.59258-.10256-.0876-.31756-.39467-.47777-.6824-.16021-.28773-.81945-1.14772-1.46497-1.9111-2.38521-2.82071-10.59377-13.18284-13.54381-17.09714-1.67415-2.22136-3.20424-4.14415-3.40019-4.27286-.59463-.39055-3.27582-.27169-4.72476.20946-.75065.24927-2.51149.62169-3.91296.8276-1.40147.20591-2.69146.48663-2.86665.62383-.17518.1372-1.60851.42033-3.18516.62917-1.57666.20884-3.51165.5744-4.29998.81234-.78833.23795-2.22165.52676-3.18516.64181-.96352.11505-2.32517.39689-3.02591.62632-.70074.22942-2.27739.5095-3.50368.6224s-3.59128.40792-5.25553.65561c-1.66424.24769-4.60256.59813-6.52959.77876-3.1546.29569-3.57513.40997-4.22088 1.14704-.62269.71074-.66466.91609-.31851 1.55823.40354.74862 4.41155 4.31988 4.84818 4.31988.1303 0 1.33245.8253 2.67145 1.834 1.339 1.0087 3.22287 2.36369 4.18639 3.01109.96351.6474 3.3285 2.40465 5.25552 3.90501 1.92703 1.50035 4.14868 3.18137 4.93701 3.73559.78833.55422 2.00665 1.46779 2.70739 2.03015 3.2995 2.64798 7.61348 5.26197 8.997 5.4516 1.03242.14151 1.89734.58718 3.21505 1.65662.99147.80466 2.01768 1.63454 2.28045 1.84417.26278.20963 1.26611 1.01318 2.22962 1.78566 2.57805 2.06692 8.51305 6.49003 11.53503 8.59657 2.47627 1.72614 11.78695 7.96708 12.94255 8.67537 1.00995.61902 2.46564 1.55724 6.41853 4.13685 5.36069 3.49833 5.76896 3.75645 6.68884 4.22881.43796.22489 2.51628 1.32775 4.61849 2.4508 2.10221 1.12304 5.58082 2.92858 7.73024 4.01231 2.14942 1.08372 3.97855 2.08451 4.06474 2.22396.0862.13945.57515.34545 1.08659.45778.51144.11233 1.10067.41003 1.30941.66154.44908.54111.77189.56892 1.58051.13616zM557.725987 462.331532c-1.22629-.53267-2.94628-1.18666-3.8222-1.45331-5.00645-1.5241-10.92547-3.17244-13.05918-3.63676-.87592-.19061-2.23758-.53639-3.02591-.7684-.78833-.23202-3.15331-.80156-5.25552-1.26565-2.10221-.46409-5.04053-1.115-6.52959-1.44647-1.48907-.33147-3.28072-.69441-3.98146-.80655-.70073-.11214-1.91906-.39476-2.70739-.62805-.78833-.23329-2.79498-.64979-4.45923-.92555-1.66425-.27575-3.74257-.64082-4.61849-.81125-6.47933-1.26073-15.50334-2.0904-30.82387-2.83394-4.5844-.22249-5.08571-.3055-5.72888-.94867-.55508-.55508-.63224-.82235-.36314-1.25783.36996-.59871 4.15013-3.30955 5.70126-4.08851.52556-.26393 2.10221-1.11397 3.50369-1.88898 1.40147-.77501 6.91977-3.60955 12.26288-6.29897 8.71058-4.38441 15.6466-7.96601 20.22581-10.44414.87592-.47403 5.10423-2.64284 9.39624-4.81958 7.35404-3.72969 12.76767-6.56063 16.4036-8.5779.87592-.48597 2.02258-1.10053 2.54813-1.36569.52555-.26515 1.23736-.66414 1.58179-.88665.34443-.2225 1.63443-1.03619 2.86665-1.8082 4.80219-3.00865 8.74331-5.68451 11.79591-8.00894 1.75184-1.33396 4.11682-3.12412 5.25552-3.97813 4.50959-3.38214 11.38036-9.07298 12.67693-10.4999l1.3696-1.50729 3.88593.15281c2.13726.084 5.10425.38435 6.59332.66735 4.53269.86142 10.52105 1.80498 13.37769 2.10785 1.48907.15788 4.85738.51274 7.48514.78857 2.62776.27583 6.21107.71561 7.96292.97729 1.75184.26168 4.69015.55387 6.52958.6493 3.51462.18235 7.26866.61596 21.97765 2.53849 5.01488.65547 6.67407 1.11251 7.25446 1.9983.71374 1.0893.22736 2.24743-3.07303 7.31733-1.51146 2.32183-4.0381 6.19793-5.61476 8.61355-1.57665 2.41562-3.35249 5.17424-3.94629 6.13027-.5938.95603-1.65806 2.6699-2.36502 3.80859-.70696 1.1387-1.73922 2.78702-2.29392 3.66294-1.36261 2.1517-7.76235 12.59392-9.17485 14.97028-.62477 1.05111-1.94783 3.48776-2.94012 5.41479-1.94208 3.7715-3.08872 5.25552-4.06073 5.25552-.59798 0-5.78529 1.17832-8.98182 2.04026-.87592.23619-2.73925.72893-4.14072 1.09498-6.56666 1.71514-8.17232 2.15595-11.62585 3.1917-1.1387.34151-4.29201 1.26916-7.00737 2.06144-2.71535.79229-5.367 1.5805-5.89255 1.75158-.52556.17109-2.24555.69239-3.8222 1.15844-1.57666.46605-3.43998 1.03758-4.14072 1.27005-.70073.23247-2.56406.8144-4.14071 1.29318-1.57666.47877-3.36108 1.16845-3.96539 1.5326-.6043.36416-1.75096.75983-2.54813.87926-4.24972.63671-4.22107.63834-6.54566-.37141zm4.937-6.12461c.96352-.26004 3.40017-.9353 5.41479-1.5006 2.01461-.5653 4.45126-1.21806 5.41478-1.45058.96351-.23252 2.54017-.63414 3.50368-.89248 2.74853-.73695 7.57598-2.01431 10.19253-2.69697 2.72605-.71122 3.5226-.93307 12.26289-3.41538 9.04614-2.56917 14.20561-3.84937 18.39673-4.56471 2.32077-.39611 2.35026-.43267 7.34947-9.11222 1.31172-2.2774 3.0495-5.42398 3.86173-6.99241.81223-1.56844 1.59471-3.00176 1.73884-3.18517.14414-.18341.90169-1.55555 1.68344-3.04921 2.22864-4.25813 7.32663-12.02048 10.88954-16.58074 2.52182-3.22774 5.92809-8.47964 5.92809-9.14013 0-.7036-1.02831-1.02717-4.7959-1.5091-2.17982-.27884-5.53996-.7156-7.46699-.9706-4.95306-.65541-11.57939-1.37897-17.51841-1.9129-2.80294-.25199-5.30684-.53684-5.56421-.63301-.25737-.0962-2.47902-.37469-4.93701-.61893-2.45798-.24425-6.83404-.81341-9.72458-1.26481-2.89054-.4514-7.11885-1.11195-9.39624-1.46789-6.79724-1.06235-8.11633-1.11091-9.57268-.35242-.69129.36004-2.13198 1.41645-3.20153 2.34758-3.49352 3.04137-4.93105 4.20938-7.88486 6.40649-4.05626 3.01715-4.48472 3.3419-7.01882 5.31975-1.2345.96351-2.98337 2.2535-3.8864 2.86665-3.37915 2.29439-7.96932 5.32259-9.04657 5.96813-4.72818 2.83336-10.4207 5.96451-16.24435 8.93514-12.25976 6.2537-17.56669 9.01237-23.41096 12.16959-1.40148.75711-4.55479 2.36054-7.00737 3.56318-2.45258 1.20264-4.67728 2.30722-4.94379 2.45462-.26651.1474-1.84317.95656-3.50369 1.79813-3.94254 1.99815-11.4265 6.20679-11.63391 6.54239-.47005.76055 2.11259 1.10738 14.18883 1.9055 2.89054.19104 6.61719.5643 8.28144.82949 1.66424.26518 4.24423.62174 5.73329.79235 1.48907.17061 3.42406.5068 4.29998.74708.87592.24029 2.52424.52669 3.66294.63645 1.13869.10976 2.42869.33378 2.86665.49783.43796.16405 2.15795.50193 3.8222.75086 4.79162.71669 8.91892 1.44842 10.98882 1.9482 1.0511.25379 2.80801.59849 3.90423.76601 1.09623.16751 2.1293.38872 2.29572.49157s1.49116.46189 2.94387.79787c4.86669 1.12555 11.26258 2.76807 12.35605 3.17315.96277.35666 2.43722.23391 4.77774-.39775zM502.144847 410.846942c-1.16664-.43191-1.27624-.75304-.66706-1.95455.32423-.63949.92945-1.8703 1.34494-2.73515.94374-1.96439 3.00049-5.36009 4.25912-7.03182.52556-.69805 1.0597-1.41264 1.18698-1.58798.12729-.17534.65789-.80902 1.17911-1.40818.52122-.59916 1.74646-2.10415 2.72276-3.34442 6.71381-8.52913 8.90781-11.23086 10.30967-12.69556 1.39459-1.45709 2.67363-2.95301 6.46027-7.55568.50443-.61314 3.14952-3.90979 5.87796-7.32588 2.72844-3.41609 5.84133-7.1069 6.91753-8.2018 2.21041-2.24882 2.91841-2.43543 4.9032-1.29234 3.05509 1.75951 9.98217 8.02173 13.84927 12.52005 2.24963 2.61683 2.49291 3.061 2.49291 4.55151 0 1.25259-.15688 1.5885-1.20725 2.5848-.66399.62982-2.27648 1.70123-3.58331 2.38091-1.30683.67969-3.16439 1.7406-4.1279 2.35758-3.14177 2.01183-4.29726 2.77244-4.45924 2.93533-.0876.0881-.87592.65324-1.75184 1.25591s-3.6709 2.76374-6.21107 4.80237c-5.51593 4.42686-7.38105 5.78975-10.23578 7.47957-11.9858 7.09481-12.59542 7.43828-17.95294 10.11515-8.29014 4.14215-9.81613 4.70225-11.30733 4.15018zm11.47061-7.67937c9.22586-4.63902 13.82529-7.42269 20.33951-12.3099 4.07013-3.05356 4.9255-3.68201 6.49303-4.77048.74369-.51641 1.49713-1.08974 1.67431-1.27407 1.4434-1.50163 15.61195-10.36842 16.56807-10.36842.37051 0 1.743-1.31894 1.743-1.675 0-1.14177-9.94627-11.29654-13.1427-13.41821-2.42012-1.60638-3.08512-1.44824-5.35043 1.27234-.95297 1.1445-1.87601 2.24991-2.05119 2.45648-.17518.20656-.69551.87724-1.15627 1.49038-.46077.61314-1.17743 1.49454-1.59258 1.95867-.41516.46412-2.61815 3.24357-4.89555 6.17656-5.2782 6.79763-9.44823 12.04569-9.73354 12.24983-.12242.0876-1.11608 1.23425-2.20814 2.54813-2.67876 3.22287-4.80609 5.71821-5.57673 6.54146-3.27795 3.50171-6.88294 8.22934-8.11152 10.63755-1.22405 2.39934-.45238 2.23231 7.00073-1.51532z"/>
	<path d="M565.688897 446.382092c-2.03667-1.03302-7.30161-9.37889-9.337-14.80082-2.07716-5.53319-2.1204-5.79662-2.18319-13.30246-.0321-3.8331.0579-7.275.19999-7.64866.14207-.37365 1.17057-1.21948 2.28557-1.87962 1.115-.66014 2.6006-1.61754 3.30133-2.12755.70074-.51001 3.92572-2.72363 7.16663-4.91916 3.2409-2.19552 6.60921-4.50154 7.48514-5.12449 4.28501-3.04747 5.85457-3.8763 9.23698-4.87774 2.41917-.71625 6.15361-1.1748 7.10595-.87254.32708.10381 1.21604 1.04644 1.97548 2.09473.75943 1.04829 1.47626 1.90598 1.59296 1.90598.1167 0 .38136.3225.58814.71667.20677.39416.72095 1.28999 1.14262 1.99073 2.09316 3.47846 3.03559 5.83014 4.33991 10.82956.86762 3.32553.91457 3.85253.92335 10.3645.007 4.92436-.11841 7.35168-.44307 8.59994-.24877.95653-.61802 2.95145-.82055 4.43316-.20252 1.48172-.50064 2.94146-.66248 3.24386-.16184.3024-.29426 1.06743-.29426 1.70005 0 1.46852-1.08364 2.6-2.75143 2.87291-.67652.1107-1.90483.40781-2.7296.66024-.82476.25242-2.40142.66213-3.50368.91047-2.00882.45257-5.83883 1.44208-10.60406 2.73963-6.30425 1.71663-7.47677 1.97861-9.87401 2.20625-1.40148.13308-2.76313.3242-3.02591.42472-.26278.10052-.76444.0374-1.11481-.14036zm5.41478-2.67245c1.05111-.30977 2.69943-.75043 3.66294-.97925.96352-.22882 3.04184-.78737 4.61849-1.24123 1.57666-.45385 3.72665-1.01812 4.77775-1.25393 1.90775-.42801 6.82597-1.71305 9.23698-2.41347 3.32111-.96481 3.86369-2.56263 5.62171-16.55512.6326-5.03511-.25552-12.85302-1.79561-15.80605-.26276-.50384-.47863-1.07541-.47971-1.27016-.002-.39649-1.60001-3.82718-2.57949-5.53847-.35095-.61314-1.39161-2.04647-2.31258-3.18516l-1.6745-2.07036-1.89359.0171c-3.39062.0306-7.10563 1.36593-10.08121 3.62352-.82432.62541-2.02074 1.49545-2.65871 1.93341-.63796.43796-1.39286 1.04712-1.67755 1.3537-.28469.30657-.6391.5574-.78759.5574-.23278 0-2.62496 1.54104-3.56991 2.29973-.17518.14066-1.25018.8728-2.38887 1.62698-1.1387.75418-2.71536 1.83134-3.50369 2.39369-.78832.56235-2.40026 1.66825-3.58207 2.45755-2.84007 1.89681-3.33951 2.89368-3.60245 7.19041-.2702 4.41537.76517 11.45171 1.92972 13.11434.26238.37459.47706.88619.47706 1.13688 0 .45513 1.34262 3.59454 1.92395 4.49873.16895.26277.44366.79248.61047 1.17712.2985.6883 1.58619 2.60869 3.75359 5.59792 1.27135 1.75341 2.46217 2.5014 3.41234 2.14338.35829-.135 1.51143-.4989 2.56253-.80867z"/>
	<path d="M558.987277 415.512672c-.70228-1.1363 1.07483-4.0162 3.16659-5.13162.435-.23196 1.58337-.88647 2.55194-1.45447 2.0325-1.19192 3.7649-1.48638 3.93473-.6688.1403.67546-1.21697 1.96681-3.36044 3.19722-.92557.5313-1.88792 1.36255-2.13854 1.8472-.96679 1.86957-3.52402 3.23026-4.15428 2.21047zM267.421117 421.893982c-.30521-.17454-1.03333-.56692-1.61806-.87196-.58473-.30503-1.10506-.62242-1.15628-.7053-.0512-.0829-.67922-.34588-1.39554-.58444-.71632-.23856-1.52754-.56657-1.8027-.72892-.27517-.16235-.96041-.44618-1.52278-.63073-.56236-.18455-1.30914-.50088-1.65951-.70295-.35036-.20207-1.10389-.50948-1.67449-.68312-.5706-.17365-1.28726-.45856-1.59258-.63313-.30532-.17457-1.05679-.47439-1.66993-.66625-.61315-.19187-1.43731-.51609-1.83147-.72049-.39417-.2044-1.14666-.4947-1.67222-.64511-.52555-.15041-1.34971-.47001-1.83147-.7102-.48175-.2402-1.30501-.56041-1.82945-.71158-.52444-.15116-1.2411-.44077-1.59258-.64357-.35148-.2028-1.13987-.5213-1.75197-.70776-.6121-.18647-1.27143-.44289-1.46517-.56984-.19374-.12694-.8908-.41159-1.54903-.63255-.65823-.22096-1.43222-.53692-1.71999-.70213-.28777-.16521-.98905-.46355-1.5584-.66297-.56935-.19941-1.21435-.48317-1.43333-.63057-.21898-.1474-.81973-.42403-1.33501-.61473-.51528-.1907-1.23194-.51856-1.59258-.72858-.36065-.21002-1.08572-.54011-1.61127-.73353-.52555-.19341-1.14117-.48157-1.36803-.64035-.22687-.15877-.83603-.44544-1.3537-.63703-.51766-.19159-1.12037-.47257-1.33935-.62438-.21898-.15183-.91811-.46278-1.55361-.69101-.63551-.22823-1.31634-.51522-1.51296-.63776-.19662-.12253-.80997-.39268-1.36301-.60033-.74779-.28079-1.08821-.51075-1.32812-.89716-.17742-.28579-.45951-.59289-.62687-.68245-.46288-.24773-.40893-1.46.10952-2.46089.40863-.78888.41151-.82.31019-3.34442-.0562-1.40148-.24215-4.33067-.41313-6.50933-.17097-2.17865-.31086-4.51302-.31086-5.18747 0-1.90877 1.21501-10.86251 1.67604-12.35121.13563-.43796.43065-1.79961.6556-3.0259.22495-1.22629.5757-2.73128.77945-3.34443.20375-.61314.48544-1.7598.62598-2.54813s.39624-1.72762.56823-2.08731c.17198-.3597.45839-1.25552.63645-1.99073.17806-.73521.53064-1.80257.78351-2.37192.25286-.56935.58536-1.50101.73887-2.07036.15351-.56935.40996-1.20577.56987-1.41427.15992-.20851.43801-.87353.61798-1.47784.17997-.60431.46262-1.32954.6281-1.61163.16549-.28209.4933-1.05039.72847-1.70733.23517-.65694.56484-1.38875.73261-1.62624.16776-.23749.44255-.83151.61063-1.32004.16808-.48853.444-1.08261.61316-1.32018.16916-.23756.48329-.86187.69806-1.38735.21477-.52547.58093-1.23416.8137-1.57485.23276-.3407.42321-.70974.42321-.8201 0-.11037.2597-.58411.57712-1.05277.31742-.46866.71367-1.13878.88056-1.48915.35547-.74626 1.56765-2.56752 2.01395-3.0259.17057-.17519.44464-.5308.60905-.79024.27371-.43194.81768-.99678 2.97361-3.08769.41997-.40731.90956-.97348 1.08798-1.25815.17842-.28468.3973-.51759.4864-.51759.0891 0 .37404-.22699.63319-.50441.64953-.69533 1.31512-.77045 5.32167-.6006 2.5489.10806 3.60199.21676 4.3796.45208.56308.1704 1.63295.4673 2.37748.65977.74453.19247 1.56869.47124 1.83147.61948.26278.14824 1.03319.47173 1.71203.71886.67883.24713 1.23425.50251 1.23425.56752 0 .065.48374.38345 1.07499.70764 1.23982.67981 2.36611 1.45174 3.29244 2.25656 1.66448 1.44614 3.43337 3.10309 4.38435 4.10689.57343.60529 1.26814 1.32195 1.5438 1.59259s1.12337 1.20873 1.88381 2.08465c.76044.87592 1.88843 2.14601 2.50663 2.82243.61821.67641 1.2349 1.39307 1.37042 1.59258.90098 1.3263 5.95725 6.6177 8.56441 8.96269.58432.52555 1.1487 1.03866 1.2542 1.14025.10549.10158.75881.65598 1.45181 1.23199.693.57601 1.5825 1.33047 1.97666 1.67656.39417.3461 1.11083.95511 1.59258 1.35336 2.98 2.46345 6.03134 5.32164 6.38924 5.9848.48446.89767.64558 2.07148.72874 5.30899.0627 2.44027.0144 4.08367-.18259 6.21107-.3081 3.32776-.65679 5.73388-.89563 6.18014-.0911.1703-.40433 1.22031-.69598 2.33335-.29166 1.11305-.68059 2.36759-.8643 2.78787-.1837.42028-.44786 1.20349-.587 1.74047-.13915.53698-.41735 1.30394-.61822 1.70436s-.52904 1.19386-.72925 1.76321c-.20022.56935-.52982 1.28601-.73244 1.59258-.20263.30658-.45241.80824-.55508 1.11481-.10267.30657-.358.78825-.56741 1.0704-.20942.28214-.59773.96297-.86293 1.51295-.75177 1.5591-1.61687 3.05066-2.09658 3.61485-.24087.2833-.43796.58795-.43796.677 0 .18417-2.08889 3.00228-2.44362 3.29669-.12789.10613-.27623.36712-.32965.57998-.0534.21286-.24067.46384-.4161.55772-.17543.0939-.50486.4722-.73207.8407-.2272.3685-.50942.74709-.62715.8413-.11773.0942-.55786.62108-.97808 1.17082-.42022.54974-.9651 1.26099-1.21085 1.58055-.39926.51917-1.71442 1.99352-3.29575 3.69467-.90158.9699-2.57227 2.63551-3.34442 3.33426-1.4156 1.28103-1.70873 1.52377-2.36253 1.95643-.36486.24146-.66338.50149-.66338.57786 0 .0764-.24375.25452-.54166.39589-.75299.35732-1.96398.32972-2.64599-.0603zm2.69049-3.84851c.80656-.45305 2.98616-2.51706 4.87676-4.61813 2.27238-2.52534 2.81828-3.14928 3.2528-3.71779.26779-.35037.84565-1.06703 1.28412-1.59259 1.14824-1.37628 2.09882-2.57325 2.50639-3.15607.19496-.27877.52752-.68603.73904-.90501.21151-.21898.47-.56574.57441-.77057.10442-.20483.42302-.63483.70802-.95555.28499-.32072.65532-.83396.82296-1.14053s.50188-.79281.74275-1.08054c.24088-.28772.43796-.61474.43796-.72671 0-.11198.28373-.67401.6305-1.24896.34677-.57496.7538-1.35876.90451-1.74179.1507-.38303.42885-.91141.61811-1.17419.18926-.26277.43813-.7286.55304-1.03518.11492-.30657.40617-.91573.64723-1.35369s.58482-1.27569.76391-1.86162c.17908-.58594.4681-1.34465.64226-1.68602.17415-.34138.46915-1.22364.65555-1.96058.18639-.73694.50728-1.81095.7131-2.38669.2058-.57574.52975-1.97323.71987-3.10553.19012-1.13231.4435-2.48874.56307-3.01429.48968-2.15243.7327-8.31911.39749-10.08662-.25329-1.33561-1.30099-2.82137-3.26978-4.63692-.96351-.88853-1.93789-1.71575-2.16529-1.83827-.22739-.12252-.69322-.47967-1.03517-.79366-.70836-.65043-1.06972-.96907-4.04579-3.56748-3.36085-2.93437-11.1746-10.81526-12.10363-12.20762-.13138-.19692-.39262-.49138-.58051-.65437-.18789-.16298-.70557-.72633-1.15038-1.25188-.44482-.52555-1.02766-1.20638-1.2952-1.51296-.26755-.30657-1.01782-1.17385-1.66727-1.9273-1.80881-2.09844-4.38498-4.46562-6.34599-5.83116-.27878-.19413-.79354-.56406-1.14391-.82207-.35036-.25801-1.03993-.64659-1.53238-.86351-.49244-.21693-.94113-.46849-.99709-.55904-.056-.0906-.58472-.32277-1.17501-.51605-.5903-.19328-1.4433-.52362-1.89556-.7341-1.36601-.63572-3.05591-.89943-5.86655-.91548-3.21343-.0183-3.58392.12053-5.90942 2.21507-1.15615 1.04133-1.22707 1.11551-1.97387 2.06459-.39416.50094-.95524 1.20447-1.24684 1.56341-.29159.35894-.69808.98397-.90331 1.38896-.20522.40499-.49181.83484-.63687.95523-.14505.12038-.44747.58171-.67205 1.02517-.22457.44346-.57027 1.0213-.76821 1.28407-.19794.26278-.47786.76346-.62204 1.11264-.14418.34917-.39023.77917-.54679.95555-.15655.17638-.44869.71485-.6492 1.19661-.20051.48175-.50034 1.06803-.66629 1.30283-.16594.23481-.48527.91563-.7096 1.51296-.22433.59732-.53899 1.30103-.69924 1.56381s-.4517 1.01527-.64768 1.67221c-.19598.65694-.479 1.3736-.62895 1.59258-.14994.21898-.43605.89981-.6358 1.51296-.19975.61314-.52905 1.44626-.73179 1.85137-.20273.40511-.50908 1.2651-.68078 1.9111-.17171.64599-.46587 1.5168-.65371 1.93511-.18784.41832-.51055 1.49332-.71712 2.38888-.20658.89556-.52395 2.04881-.70527 2.56277-.18131.51396-.47666 1.69645-.65633 2.62776-.17966.93131-.46774 2.15023-.64018 2.70872-.17244.5585-.4575 1.88432-.63346 2.94628-.35194 2.12391-.33539 2.03376-.70536 3.84194-.38744 1.89352-.72087 5.32595-.7228 7.44078-.002 1.96597.38072 9.63798.6305 12.64589.16801 2.02317.66531 3.77253 1.17454 4.13168 1.0806.76213 1.94176 1.23736 2.76243 1.52443.50888.17801 1.03535.42218 1.16994.54261.13459.12042.60042.36715 1.03518.54829.43476.18113 1.29214.57257 1.90528.86987 2.47999 1.20247 4.16182 1.97324 4.53886 2.08013.21898.0621.75648.3112 1.19444.55361.43796.24241 1.19046.56572 1.67221.71846.48176.15275 1.09092.40528 1.3537.56119.26277.15591 1.1013.50214 1.86338.76942.76209.26727 1.65791.62272 1.99073.7899.33282.16717.99928.42682 1.48104.577.48176.15018 1.19842.43752 1.59258.63852.39417.20101 1.23501.51964 1.86854.70808.63353.18843 1.38602.47783 1.67221.6431.28619.16527 1.08004.45519 1.76413.64428.68408.18909 1.47241.47599 1.75184.63755.27943.16157 1.04555.45143 1.70249.64413.65694.1927 1.51693.51221 1.9111.71003.39416.19783 1.1436.48267 1.66541.633.52181.15032 1.2743.4362 1.67221.63528.3979.19908 1.22053.52553 1.82805.72545.60753.19991 1.32688.49463 1.59856.65493.27168.16029.99294.46575 1.6028.67878.60986.21303 1.503.5351 1.98476.7157.48175.1806.90303.3307.93616.33356.0331.003.46313-.22111.95555-.49771z"/>
	<path d="M237.682117 344.699402c-.30497-.0587-.35833-.17042-.35833-.74992 0-.46778.0951-.767.30396-.95598.16718-.1513.39228-.48829.50021-.74886.10793-.26057.40154-.57993.65245-.70969.25092-.12975.62524-.50367.83183-.83093.20659-.32726.49419-.69342.63911-.81369.14491-.12027.36985-.44172.49985-.71433.4603-.96524 2.30094-2.66018 3.4207-3.14993.39416-.1724.85999-.4475 1.03517-.61134.17519-.16385.64102-.37558 1.03518-.47053 1.63647-.3942 2.50355-.63565 3.10554-.86478.74079-.28196 2.44415-.32777 3.30435-.0889.55486.15409 1.07525.76043 1.07525 1.25283 0 .24853-1.68364 1.43632-2.38835 1.68496-.34427.12146-1.2198.30689-1.94563.41207-.72583.10517-1.46302.27474-1.6382.37683-.17519.10209-.64618.30786-1.04665.45727-.7239.27008-1.90564 1.43494-2.37119 2.33732-.11298.21898-.39351.58694-.6234.81768-.2299.23074-.81016.82169-1.28947 1.3132-.49573.50836-1.11372.97003-1.43332 1.07078-.30902.0974-.93702.38437-1.39555.63771-.79893.4414-1.12326.50042-1.91351.34821z"/>
	<path d="M284.253717 448.894762c-.18581-.0683-.50186-.26665-.70233-.44074-1.03795-.90135-3.13627-1.93781-4.36373-2.15548-.74241-.13165-2.0093-.58808-2.81531-1.01429-.80601-.42621-2.68169-1.422-4.16818-2.21286-1.48649-.79086-3.76689-1.95258-5.06757-2.5816-1.30067-.62902-2.51689-1.24042-2.7027-1.35866-.18581-.11825-.59122-.33046-.9009-.47159-.30969-.14113-1.19013-.5458-1.95653-.89927-.76641-.35347-1.45176-.64266-1.523-.64266-.12474 0-2.37129-1.01667-4.7637-2.15579-.63174-.30081-1.23229-.54692-1.33455-.54692-.10225 0-.90294-.34447-1.7793-.7655-2.90158-1.39401-7.42734-3.54335-8.91319-4.23298-1.39203-.64608-1.73255-.81181-2.6464-1.28796-.38342-.19978-2.13207-1.01403-5.3491-2.49079-3.9045-1.79234-4.53823-2.0908-5.06757-2.38661-.30968-.17306-.91779-.47516-1.35135-.67133-.43356-.19617-2.0045-.94539-3.49099-1.66493-1.48648-.71955-2.95608-1.42159-3.26576-1.5601-.30969-.13852-.71509-.34472-.9009-.45825-.18582-.11352-1.25-.63228-2.36487-1.15279-1.11486-.52052-3.04054-1.4336-4.27928-2.02907-1.23874-.59547-3.21509-1.50163-4.39189-2.0137s-2.44369-1.07139-2.81532-1.24293c-.9129-.4214-3.3974-1.43477-4.5045-1.83729-2.40862-.87571-7.19049-3.02819-11.26126-5.06905-5.07362-2.54363-6.43323-3.42086-8.5036-5.48658-1.8387-1.83457-1.89306-1.91981-2.16483-3.39474-.15332-.83211-.44041-1.8255-.63797-2.20755-.33811-.65384-.89613-2.16521-1.75561-4.75505-.20555-.61937-.57437-1.68356-.8196-2.36487-.24522-.68131-.64656-1.93519-.89186-2.7864-.2453-.85121-.58205-1.81405-.74833-2.13964-.16628-.32559-.37513-.94671-.46412-1.38027-.089-.43355-.38877-1.34572-.6662-2.02702-.27743-.68131-.72998-1.89752-1.00568-2.7027-.2757-.80518-.80833-2.27478-1.18364-3.26577-.3753-.99099-.92724-2.50197-1.22653-3.35773-.29929-.85575-.6462-1.67887-.77091-1.82914-.12472-.15027-.38583-.81834-.58025-1.48461-.19443-.66627-.48133-1.41411-.63757-1.66185-.15624-.24775-.46721-1.00789-.69105-1.68919-.22384-.68131-.54206-1.44687-.70715-1.70124-.16509-.25437-.50373-1.05415-.75253-1.77729-.24879-.72313-.53819-1.42717-.64311-1.56452-.10493-.13736-.36594-.70583-.58004-1.26326-1.16533-3.03414-10.50586-21.61253-13.90465-27.65648-.7868-1.39912-1.73459-3.08987-2.10621-3.7572-1.66096-2.98266-2.83354-4.91779-3.30342-5.45168-.19817-.22518-.57826-.81482-.84463-1.31032-.53778-1.00034-1.23778-2.09717-2.65905-4.1665-1.37642-2.00402-1.7158-3.52443-1.14132-5.11311.44815-1.23933 1.0704-1.31668 8.13587-1.0113 3.36537.14546 7.03102.36446 8.14588.48668 1.11487.12221 5.4223.4315 9.57207.68731 4.14978.25581 7.69707.50842 7.88289.56136.40682.11593 6.95968.7048 11.48648 1.03225 1.79617.12992 3.92455.32641 4.72973.43663.80518.11022 8.71059.40293 17.56757.65046 17.83249.49838 27.70372.80022 38.17567 1.16735 3.84009.13462 8.62367.17553 10.63017.0909 4.18173-.17636 3.47979-.47268 5.86369 2.47527.70121.86712 2.59157 2.9955 4.2008 4.72973 1.60923 1.73424 3.08423 3.32435 3.27777 3.53358.95486 1.03226 13.04929 13.38409 16.90867 17.26852 4.07838 4.10484 6.70577 6.46437 9.69032 8.70241.66078.49549 1.56109 1.3063 2.0007 1.8018 1.26932 1.4307 4.07272 4.1693 5.64856 5.51802.79604.6813 1.76934 1.54279 2.16289 1.91441.39355.37162 1.10676.99467 1.58491 1.38454.47815.38988 1.68017 1.37719 2.67116 2.19404.991.81684 2.05518 1.68981 2.36487 1.93995.30968.25012 1.06135.86836 1.67037 1.37384.99767.82808 2.09888 1.68139 4.33017 3.35538 1.67476 1.25646 3.54004 2.63702 4.64954 3.44129.64583.46816 1.37695 1.00224 1.62469 1.18685.24775.1846 1.00789.73137 1.68919 1.21503.68131.48367 1.59347 1.14849 2.02703 1.47738.43356.32889 1.74951 1.31037 2.92433 2.18106 1.17482.8707 2.44172 1.82914 2.81532 2.12987.3736.30073.8943.72053 1.15712.93288.26282.21235 1.05862.79149 1.76843 1.28699 1.25357.87507 2.80939 2.0579 3.49696 2.65861.18581.16234.89262.69475 1.57069 1.18314 2.0102 1.44787 2.3617 1.70807 4.78448 3.54173 1.2738.96407 2.58506 1.97758 2.9139 2.25225.32884.27467.93694.72871 1.35135 1.00898.4144.28027 1.30816.91371 1.98613 1.40766.67798.49394 1.3621.89808 1.52027.89808.15818 0 .2876.0999.2876.22195 0 .12207.34291.45146.76202.73198.41912.28052 1.51492 1.01679 2.43512 1.63616.92019.61937 1.82929 1.22748 2.0202 1.35135 1.34625.8735 2.3997 1.61522 2.82601 1.98975.27408.24077.6844.55036.91183.68798 1.41347.85524 2.00479 1.24132 3.04977 1.99128 1.21203.86983 1.3739.98842 3.11322 2.2811.57289.42576 1.26469.8935 1.53732 1.03941.27266.14591.66541.41628.87282.60082.20741.18453.73182.57933 1.16538.87732.43356.298 1.18191.82346 1.663 1.16771.4811.34424 1.25457.87927 1.71885 1.18896 1.2004.80071 3.34356 2.28573 4.06306 2.81531.33658.24775 1.40896.97946 2.38309 1.62602.9741.64656 2.35889 1.6094 3.07729 2.13964.7184.53024 1.69494 1.21745 2.17009 1.52713.47516.30969 1.74626 1.17118 2.82471 1.91442 1.07845.74324 2.34437 1.60473 2.81318 1.91441.46878.30969 1.11833.74043 1.44342.95721.32507.21678.85705.57151 1.18212.78829.32509.21678 1.00921.67325 1.52027 1.01438.51108.34112 1.2207.7972 1.57696 1.01351.35626.2163.91369.60088 1.23874.85461.32504.25374 1.35112.90762 2.28018 1.45308.92905.54547 1.95513 1.19935 2.28018 1.45309.32504.25373.88247.6383 1.23873.85461.35627.2163 1.10383.69456 1.66127 1.0628.55743.36823 1.57094.97989 2.25225 1.35923.6813.37935 1.69482.98734 2.25225 1.3511.55743.36376 1.48777.9161 2.06739 1.22744.57964.31133 1.11603.66662 1.192.78953.076.12292.46714.37961.86928.57044 1.86604.88549 4.19126 3.78903 4.64083 5.79503.25541 1.13974-.0892 2.60841-.67952 2.89598-2.30951 1.12507-4.52451 1.39364-6.30701.76474-.537-.18947-2.29806-.44936-3.91347-.57754-1.63337-.12961-3.53689-.42531-4.28842-.66619-.74324-.23822-2.61824-.53993-4.16667-.67046-1.54842-.13053-3.52477-.43377-4.39189-.67387-.89531-.2479-3.03639-.53823-4.95495-.67187-1.85811-.12943-4.08784-.37888-4.95496-.55431-2.41-.48761-2.9911-.542-8.55856-.80109-2.84909-.13259-6.98527-.38844-9.1915-.56856-4.52237-.36921-21.7591-.43587-25.94363-.10034-1.36261.10926-6.63288.35128-11.71171.53781-11.39011.41833-13.31644.52597-16.44144.91878-2.88838.36306-4.43269.48904-9.7973.79925-2.16779.12536-4.75225.37377-5.74324.55203-.991.17826-3.20283.4837-4.9152.67875-1.71237.19505-3.65612.496-4.31945.66877-.66333.17278-2.40419.43206-3.86859.57618-1.93777.19071-2.97499.40978-3.81039.80481-1.13333.53591-1.68294.62575-2.34313.383zm130.50194-8.97793c.53391-.53392.44822-.69845-.71591-1.37447-.5884-.34169-1.20918-.75681-1.37952-.92248-.17034-.16568-.74795-.50723-1.28358-.75901-.53563-.25177-1.0928-.60106-1.23813-.77619-.14536-.17513-.37856-.32121-.51822-.32462-.13969-.003-.91275-.46329-1.71793-1.02195-1.76982-1.22795-2.2589-1.54965-3.71831-2.44577-1.55946-.95755-1.75894-1.08327-2.50009-1.57574-2.10437-1.39827-6.56345-4.32796-6.8805-4.5206-.20552-.12487-1.40448-.9365-2.66437-1.80362s-2.612-1.77565-3.00471-2.01896c-.3927-.24331-.82826-.54736-.96788-.67567-.13964-.12832-.83225-.6387-1.53917-1.1342-.70691-.49549-1.62831-1.16599-2.04754-1.48999-.41926-.324-1.06953-.71636-1.44507-.87192-.37556-.15555-.68281-.36928-.68281-.47494 0-.10567-.29446-.34439-.65435-.53049-.35989-.18611-.79288-.47692-.96221-.64626-.16934-.16933-.74993-.60244-1.2902-.96245-.54027-.36002-1.36216-.90796-1.82644-1.21764-1.20192-.80174-3.33088-2.27698-4.14498-2.87223-1.37892-1.00824-2.12031-1.53537-3.40453-2.42056-.71882-.4955-1.57675-1.10361-1.90648-1.35136-.93581-.70313-3.12176-2.20549-3.93247-2.7027-.40396-.24775-1.32913-.90653-2.05593-1.46396-.7268-.55743-1.64323-1.21622-2.03651-1.46397-.39328-.24774-1.56107-1.03234-2.59508-1.74354-1.03401-.7112-2.84285-1.95565-4.01965-2.76544-1.1768-.80979-2.39302-1.64117-2.7027-1.84752-.30969-.20635-1.06982-.79181-1.68919-1.30101-.61937-.50921-1.45122-1.15214-1.84856-1.42873-.39734-.2766-.95478-.70038-1.23874-.94175-1.51589-1.28847-3.66807-2.96551-4.08945-3.18662-.422-.22144-1.30849-.90275-2.39533-1.84094-.18581-.1604-1.03393-.79122-1.88471-1.40182-.85079-.61061-2.18833-1.61695-2.97232-2.23632-3.07222-2.42712-8.45405-6.31173-12.03486-8.68677-2.42167-1.60623-2.71411-1.80856-3.71143-2.56789-1.11825-.85141-3.64081-2.95144-5.37884-4.47791-.72601-.63763-1.48614-1.26067-1.68919-1.38455-.20305-.12387-.62256-.44899-.93225-.72248-.30968-.27349-1.42455-1.22607-2.47748-2.11684-2.09414-1.77164-2.24242-1.90309-4.05405-3.59395-1.30442-1.21746-2.44557-2.05385-3.82156-2.80096-1.34425-.72988-2.46059-1.67712-4.50278-3.82073-3.14641-3.30267-9.8169-10.08024-13.04833-13.2578-1.65925-1.63158-4.04101-4.01864-5.2928-5.30457-1.25178-1.28593-3.13115-3.21161-4.17636-4.27928-1.93243-1.97396-4.38022-4.66253-5.95026-6.53555-2.38782-2.84864-6.3151-6.77283-6.97983-6.97435-.39054-.1184-2.68641-.27791-5.10196-.35448-2.41554-.0766-6.11486-.2393-8.22072-.36161-2.10585-.12232-12.39301-.31767-22.86036-.43411-10.46734-.11644-20.24774-.31399-21.73423-.43899-1.48649-.125-3.84063-.32801-5.23144-.45113-1.3908-.12312-6.05297-.33347-10.36036-.46744-4.30739-.13397-9.25054-.39243-10.98478-.57435-1.73423-.18193-6.19369-.48356-9.90991-.67029-3.71621-.18673-8.37838-.48539-10.36036-.66369-6.28724-.5656-9.1767-.6535-9.65228-.29364-.40048.30303-.38345.382.40506 1.87845.99374 1.88592 1.71062 3.08056 2.17841 3.63018.46263.54356 2.06027 3.21746 4.18905 7.01101.71675 1.27727 1.58354 2.79754 1.92619 3.37838.34265.58083.92608 1.66417 1.2965 2.40741.37042.74325 1.29263 2.51689 2.04935 3.94144 1.72035 3.2386 8.3796 16.48325 9.41179 18.71917.42241.91505 1.06174 2.3225 1.42072 3.12768.35899.80518.84496 1.86937 1.07994 2.36487.23498.49549.64432 1.45833.90964 2.13963.26532.68131.78796 1.99888 1.16143 2.92793.7775 1.93417 1.78257 4.62255 2.53284 6.77488.28414.81515.64022 1.71303.79129 1.9953.15106.28226.46178 1.13559.69048 1.89629.22871.76069.78399 2.3966 1.23395 3.63533.44997 1.23874 1.00474 2.87727 1.23283 3.64118.22809.76391.57005 1.72675.75991 2.13964.18985.41289.4932 1.30815.6741 1.98945.1809.68131.53515 1.7455.78721 2.36487.25207.61937.60782 1.58221.79056 2.13964.79735 2.43221 1.72314 4.7147 2.29898 5.66806.52804.8742.92908 1.18335 2.66819 2.05683 1.12571.5654 2.65485 1.29675 3.3981 1.62522.74324.32847 1.95946.88495 2.7027 1.23662.74324.35167 1.60473.71192 1.91441.80056.30969.0886.79587.34291 1.0804.56506.28453.22214.84197.47386 1.23874.55938.39677.0855 1.12681.38533 1.62231.66625.49549.28093 1.3063.63811 1.8018.79374.49549.15564 1.1337.46393 1.41823.6851.28454.22117.84197.4734 1.23874.56052.39677.0871 1.07432.39818 1.50567.69125.43135.29307.94917.53285 1.15073.53285.20155 0 .91282.28956 1.5806.64346.66777.3539 1.61954.77405 2.11504.93366.49549.1596 1.14261.47815 1.43803.70789.29542.22973.7119.41769.9255.41769.21361 0 .95816.30406 1.65456.67568.6964.37162 1.40586.67567 1.57658.67567.17071 0 .88017.30406 1.57657.67568.69641.37162 1.40504.67568 1.57474.67568.1697 0 .75489.23732 1.30042.52738s1.38852.65829 1.87331.81829c.4848.15999 1.19375.46897 1.57546.68662.38171.21764 1.09942.52357 1.59492.67983.49549.15625 1.10902.41937 1.3634.5847.25437.16532 1.02981.49577 1.72319.73433.69339.23856 1.49878.58339 1.78976.76629.29098.18289.93446.46055 1.42995.61701.4955.15646 1.10527.41728 1.35504.57959.24978.16231.90856.45307 1.46397.64612.5554.19305 1.41523.54849 1.91072.78986.4955.24137 1.76239.8014 2.81532 1.24451 1.05293.4431 2.42117 1.04334 3.04054 1.33386.61937.29051 1.50478.64798 1.96758.79436.4628.14638.89496.35271.96035.45851.0654.1058.49754.31514.96034.4652.4628.15006 1.60159.62448 2.53065 1.05426 4.54355 2.10187 14.49375 6.91694 16.66666 8.06529.30969.16367 1.47523.71416 2.59009 1.22332 1.11487.50917 2.17906 1.02359 2.36487 1.14318.18581.11958.62899.33155.98485.47106.35585.1395 1.16666.52966 1.8018.86703.63513.33736 1.40684.69229 1.7149.78873.30806.0964.91617.40609 1.35135.68813.43518.28203 1.63405.73656 2.66416 1.01007 1.98399.52677 2.92884.52786 7.02348.008 1.05293-.13367 4.4482-.44595 7.54504-.69396 3.09685-.24801 7.30293-.59712 9.34685-.77579s6.55406-.43441 10.02252-.56831c3.46847-.1339 6.76239-.33504 7.31982-.44698 1.11197-.22329 9.50532-.55969 23.08559-.92524 4.83108-.13004 11.01351-.3216 13.73874-.42568 4.96403-.18959 12.58419-.0009 17.15597.42485 1.34124.1249 4.567.33254 7.16835.46143 2.62541.13008 5.18066.37073 5.74325.54089 1.27054.3843 2.45369.53378 6.41891.81097 1.73424.12123 3.71059.3749 4.3919.56372.6813.18881 2.65765.48907 4.39189.66722 1.73423.17816 3.5452.48781 4.02439.68811.90953.38019 3.90669.701 7.05187.75481 1.40561.024 1.92586-.0523 2.19595-.32241zM428.889757 364.072462c-.39417-.0804-1.04141-.31448-1.43833-.52028-.39692-.20579-1.25691-.50339-1.9111-.66134-.65419-.15795-1.54087-.46296-1.97041-.67781-.42953-.21486-1.18203-.49352-1.67221-.61925-.49018-.12573-1.3929-.46996-2.00605-.76495-.61314-.29499-1.38003-.61972-1.70419-.72162-.32416-.10189-.82582-.34501-1.11481-.54025-.28898-.19524-.93468-.52052-1.4349-.72285-.50021-.20233-.99527-.47125-1.10013-.59759-.10486-.12635-.71683-.47284-1.35995-.76997-.64312-.29714-1.1693-.6034-1.1693-.68057 0-.0772-.39938-.30585-.8875-.50816-.48813-.20232-1.07938-.52733-1.31388-.72225-.23451-.19492-.87051-.55233-1.41333-.79424-.54282-.24191-1.10689-.57238-1.25351-.73438-.14661-.16201-.52664-.37674-.84452-.47719-.31788-.10045-.84744-.39377-1.17679-.65183-.32936-.25805-.84029-.57008-1.1354-.69338-.29511-.12331-.7423-.39622-.99375-.60647-.25146-.21025-.77969-.54359-1.17385-.74075-.39417-.19716-.96693-.54737-1.27281-.77824-.30588-.23088-.82656-.54217-1.15705-.69177-.3305-.1496-.64205-.37923-.69234-.51027-.0503-.13105-.39473-.3851-.76543-.56455-.3707-.17946-.95554-.57686-1.29965-.88312s-.71087-.55689-.81504-.55696c-.10416-.00007-.5206-.28679-.92542-.63715-.40482-.35037-.83207-.63704-.94945-.63704-.11738 0-.64244-.3225-1.1668-.71666-.52435-.39416-1.03505-.71666-1.13489-.71666-.0998 0-.4125-.21427-.6948-.47615-.53995-.5009-1.01744-.85024-2.58365-1.89032-.52555-.349-1.12724-.79151-1.33709-.98334-.20986-.19183-.61927-.44811-.90981-.56951-.29054-.12139-.76384-.42244-1.05178-.669-.28793-.24655-.86115-.64226-1.27381-.87935-.41266-.23708-.80682-.52486-.87592-.63951-.0691-.11464-.35854-.3437-.64322-.50902-.28467-.16532-.51758-.34559-.51758-.40059 0-.23495-1.95367-2.07645-2.50376-2.36002-.33098-.17062-.74511-.44569-.9203-.61128-.17518-.16559-.70313-.51027-1.17322-.76596-.47008-.25569-.88856-.55316-.92996-.66103-.0414-.10788-.39136-.34916-.7777-.53618-.38634-.18702-.70243-.3969-.70243-.46639 0-.0695-.45401-.42215-1.00892-.78368-.5549-.36153-1.17656-.83578-1.38145-1.05388-.2049-.21811-.46734-.39655-.58321-.39655-.11587 0-.47962-.2362-.80834-.52488-.32873-.28868-.81031-.65885-1.0702-.8226-.54727-.34483-2.01854-1.4771-2.71265-2.0876-.26277-.23113-.75001-.55936-1.08275-.72939-.33274-.17004-.64512-.41376-.69418-.5416-.049-.12784-.31431-.33978-.58945-.47096-.27515-.13119-.72388-.44829-.99718-.70467-.27331-.25638-.86456-.69235-1.31389-.96882-.44933-.27648-.81696-.56675-.81696-.64505 0-.0783-.28979-.2902-.64398-.4709-.35419-.18069-.79712-.50464-.98427-.71989-.18716-.21525-.41695-.3931-.51064-.39523-.0937-.002-.49285-.25356-.88702-.55875-.39416-.30519-1.07499-.79653-1.51295-1.09187-.43796-.29533-.93281-.68889-1.09968-.87457-.16686-.18568-.37202-.3376-.45591-.3376-.0839 0-.571-.30458-1.08246-.67684-.9877-.7189-1.93034-1.40189-2.75238-1.99421-.27617-.19899-.68129-.50225-.90027-.67391-.43719-.34271-2.12565-1.48062-2.97296-2.00358-.29577-.18255-.73326-.51036-.97221-.72847-.23894-.2181-1.00776-.81346-1.7085-1.32302-.70074-.50956-1.5249-1.1171-1.83147-1.35009-.30657-.233-.82615-.58703-1.15462-.78675-.32847-.19971-.59722-.4296-.59722-.51086 0-.0813-.35833-.36822-.79629-.6377-.43796-.26948-.7963-.54801-.7963-.61896 0-.0709-.34041-.34946-.75647-.61891-.41606-.26945-1.00731-.70675-1.31388-.97178-.30658-.26502-.60876-.48203-.67153-.48224-.0628-.00016-.47219-.30495-.90981-.67722-1.53076-1.30215-1.70185-1.4267-4.25218-3.09553-.42664-.27918-1.02653-.69465-1.33311-.92329-.30657-.22863-.86726-.64521-1.24599-.92573-.37872-.28053-1.09538-.81552-1.59258-1.18887-.4972-.37335-1.1106-.80335-1.36311-.95555-.94708-.57084-2.76121-1.99991-3.76123-2.96288-.56935-.54826-1.30221-1.1966-1.62857-1.44075-.77222-.5777-1.54-1.83901-1.66222-2.73066-.082-.59848-.0319-.80105.32587-1.31734.64241-.92699 1.21273-1.39042 2.089-1.69748.43796-.15347 1.15462-.41505 1.59258-.5813.88022-.33412 7.85621-1.27502 12.26289-1.65398 3.00693-.25859 5.48156-.61238 6.68885-.9563.43796-.12476 1.72795-.37334 2.86665-.55239 1.13869-.17906 2.75118-.49852 3.58331-.70992.83212-.21141 2.12212-.46315 2.86665-.55943 1.74865-.22613 3.7122-.60244 4.61849-.88513.39416-.12295 1.6344-.37446 2.75608-.55891 1.12168-.18444 2.41168-.43797 2.86665-.56339 2.59573-.71555 3.89074-.91799 5.84386-.91355 1.09491.002 2.44197.0828 2.99347.17855 1.26652.21981 2.65001 1.05784 3.29724 1.99726.26277.38141.81343 1.19293 1.22367 1.80338.41024.61045.86288 1.20699 1.00587 1.32566.14298.11866.37279.43597.51069.70512.27142.52977.32698.60191 2.44501 3.17457.78319.9513 1.42398 1.79317 1.42398 1.87082 0 .0776.23783.41014.52851.73887.29069.32872.6907.86642.88891 1.19489.19822.32847.41321.59722.47777.59722.11445 0 1.27826 1.50573 2.09627 2.71215.22448.33107.63483.87752.9119 1.21433.27706.33681.75988.93488 1.07293 1.32904.31305.39417.82657 1.03916 1.14116 1.43333.3146.39416.75894 1.00333.98743 1.35369.22849.35037.57245.76432.76435.91989.19191.15557.39834.44224.45874.63704.0604.19479.36921.64602.68626 1.00272.31704.3567.93477 1.12871 1.37273 1.71557.43796.58686 1.06504 1.39228 1.39351 1.78983.32847.39754.59722.78677.59722.86496 0 .0782.32627.48591.72505.90605 1.50668 1.58739 1.77982 1.89363 2.17284 2.4361.22211.30658 1.18514 1.34574 2.14009 2.30925.95494.96351 2.05746 2.14428 2.45004 2.62394.39258.47965.9364 1.08881 1.20849 1.35369.27208.26488.62917.6966.79352.95938.16435.26277.41225.56215.55089.66528.13864.10313.38884.49729.556.87592.31635.71655 1.86201 2.85359 2.44513 3.38067.18461.16686.33565.37385.33565.45997 0 .14238.26315.4712 1.747 2.18292.26576.30658.93098 1.08467 1.47827 1.72909.54729.64443 1.58632 1.8386 2.30895 2.65371.72264.81512 1.31388 1.52697 1.31388 1.5819 0 .0549.26875.38013.59722.72266.32847.34254.82807.89508 1.11023 1.22788.28216.33279.75439.86948 1.0494 1.19263.29501.32315.9863 1.21898 1.5362 1.99073.5499.77175 1.13617 1.58234 1.30282 1.80132.16664.21898.52272.73857.79128 1.15463.26855.41606.53866.75647.60023.75647.0616 0 .35677.41209.656.91574.29923.50365.74437 1.15114.9892 1.43887.24483.28772.44515.58552.44515.66177 0 .0763.23291.42483.51759.77461.49029.60241 1.32274 1.85239 2.17659 3.2683.21172.35109.51333.76672.67024.92363.15692.15692.44108.59285.63147.96876.19039.3759.58753.95241.88253 1.28113.295.32872.53636.69646.53636.81721 0 .12074.20299.42511.4511.67639.24811.25127.62207.74352.83102 1.09389.20896.35036.5972.93178.86278 1.29203.26557.36025.60846.86192.76198 1.11481.94134 1.55068 1.52346 2.45414 1.8922 2.93673.23071.30194.47079.72815.53352.94713.0627.21898.2881.6558.50084.97073.21896.32412.42835.92337.48255 1.38102.10724.90549-.15024 1.47583-1.05929 2.34637-.49673.47568-.50776.4779-2.51948.50615-1.11131.0156-2.34306-.0374-2.73722-.11774zm-5.58284-8.45175c.50475-.17596.51426-.19679.41807-.91574-.24041-1.79687-3.69304-7.30898-8.93774-14.26906-1.57218-2.08639-3.0735-4.17537-3.33627-4.64217-.71642-1.27268-2.92582-4.3994-4.33076-6.12883-2.69189-3.31363-3.45845-4.29067-5.17164-6.59172-.97821-1.31389-2.72203-3.57137-3.87515-5.01664-1.15312-1.44527-2.39428-3.07024-2.75813-3.61105-.36384-.54081-1.77217-2.32531-3.12962-3.96556-1.35744-1.64026-3.06053-3.74193-3.78465-4.67039-.72411-.92845-3.82669-4.84141-6.89461-8.69547-3.06792-3.85405-6.79194-8.58076-8.2756-10.5038-1.48366-1.92303-3.04321-3.91177-3.46568-4.41941l-.76811-.92298-1.30807.003c-.71945.002-1.80974.11252-2.42289.24667-2.03212.44459-7.94362 1.68259-9.15735 1.91774-8.06776 1.5631-10.53695 2.05125-12.024 2.3771-1.7973.39383-5.96799.96555-13.91143 1.907-4.23243.50163-4.55481.56261-5.14801.97369-.96459.66846-1.12283.96173-.82731 1.53321.32323.62506 2.64603 2.89894 3.82001 3.73955 1.22539.87742 4.22432 2.98857 6.88662 4.84796 1.16997.81713 3.31996 2.40849 4.77775 3.53636 7.54955 5.84099 13.81243 10.31961 16.13991 11.54174.49938.26222 1.44137.59543 2.09329.74047 1.1726.26088 1.22529.29527 4.90496 3.2016 9.89169 7.81281 16.68242 12.61601 30.0072 21.22461 4.15243 2.68272 8.07056 5.20557 8.70696 5.60633 1.3647.85939 4.5017 2.54407 10.95148 5.88134 2.58397 1.337 5.37895 2.80353 6.21108 3.25895.83212.45542 1.74241.90668 2.02285 1.0028.28045.0961.78084.35887 1.11197.58388.68388.46471.76343.47707 1.47487.22906z"/>
	<path d="M283.672997 449.662232c-.70073-.34666-1.91906-1.04872-2.70739-1.56015-.78833-.51143-1.88022-.94113-2.42643-.9549-.54621-.0138-1.97953-.53886-3.18517-1.16687-7.44022-3.87555-13.63591-6.98959-15.56975-7.82557-3.98689-1.72349-6.49477-2.87575-13.05918-6.00011-2.93285-1.3959-5.14805-2.44023-11.14808-5.25562-1.22629-.57541-4.3796-2.08149-7.00736-3.34686-2.62777-1.26536-5.78108-2.77265-7.00737-3.34952-5.40822-2.54413-7.78988-3.65125-9.87401-4.59-1.22629-.55235-2.6354-1.21363-3.13135-1.4695-.49595-.25588-1.05987-.46523-1.25314-.46523-.19326 0-.93414-.27472-1.64639-.61048s-2.29833-.99995-3.52462-1.47597c-4.61865-1.79286-14.17399-6.43781-14.17399-6.89012 0-.14322-.19343-.26041-.42984-.26041-.61183 0-2.68925-1.46535-4.96053-3.49903-1.45651-1.30414-2.03483-2.07145-2.28061-3.02591-.18111-.70329-.51994-1.70871-.75296-2.23426-.23301-.52556-.52111-1.31389-.64022-1.75185-.11911-.43796-.41238-1.22628-.65171-1.75184-.49876-1.09522-1.27733-3.42121-1.91909-5.7333-.56186-2.02421-1.64106-5.12029-2.2373-6.41846-.25354-.55203-.46098-1.23998-.46098-1.52878 0-.28879-.22628-.96265-.50284-1.49745-.27655-.53481-.69617-1.56685-.93247-2.29343-.75766-2.32961-1.45212-4.15422-2.08676-5.4827-.34026-.71225-.61865-1.46091-.61865-1.66369 0-.20278-.30363-1.05336-.67474-1.89017-.37111-.83681-.86348-1.95147-1.09416-2.47702-.78408-1.78637-2.28213-5.40854-3.02984-7.32589-.4099-1.0511-.93119-2.13738-1.15843-2.41395-.22724-.27657-.41316-.62265-.41316-.76906 0-.14642-1.39749-3.04149-3.10554-6.4335-1.70804-3.39201-3.29215-6.55758-3.52023-7.0346-.22809-.47701-.5393-1.0823-.69158-1.34507-.15229-.26278-.74717-1.40944-1.32196-2.54813-.57479-1.1387-1.94773-3.66201-3.05099-5.60736-1.10325-1.94535-2.19054-3.82327-2.00591-3.90183 0 0-.12595-.33668-.27988-.33668s-.47184-.49398-.70647-1.06333c-.38273-.92873-1.27719-2.34555-5.43539-8.60958-2.20293-3.31857-2.6805-5.34138-1.70597-7.2259.79829-1.54373 1.83983-1.6842 9.62512-1.29812 11.48407.56951 17.66119.96071 17.94565 1.13652.14804.0915 3.68137.38402 7.85184.65006 4.17046.26603 8.44266.60766 9.49376.75917 1.05111.15151 6.21107.43287 11.4666.62523 5.25552.19236 12.42214.49459 15.92583.67161 4.8535.24522 37.69417 1.07325 41.40715 1.04402.35037-.003 2.10733-.0411 3.90437-.0852 3.70863-.0911 4.3031.1366 5.52675 2.1165.40919.66208 1.24957 1.7268 1.8675 2.36603.61794.63924 2.62852 2.792 4.46795 4.78392 3.05254 3.30559 9.84108 10.30404 18.95174 19.53772 1.92702 1.95305 5.2054 4.95026 7.28529 6.66048 2.07988 1.71021 4.1582 3.56013 4.61849 4.11094 1.99243 2.38426 13.64026 12.48032 17.24305 14.94586.43655.29875 2.58538 1.90164 4.77518 3.56198 3.55551 2.69583 6.81966 5.1492 10.00612 7.52069.58847.43796 1.39645 1.01129 1.79552 1.27407.39907.26277.98099.72099 1.29316 1.01825.31216.29727 1.32768 1.06183 2.2567 1.69903.92903.63721 2.1908 1.57301 2.80395 2.07957.99345.82077 6.28293 4.82889 8.5918 6.51048 7.88674 5.74405 9.64518 7.00198 12.31211 8.80769 1.20369.815 2.6902 1.83052 3.30334 2.2567.61315.42619 1.75981 1.18814 2.54814 1.69322s1.64832 1.1105 1.9111 1.34538c.42883.38332 4.00406 2.94563 5.53872 3.96952.33094.2208.97593.6936 1.43332 1.05066.45739.35707 1.90661 1.35422 3.22049 2.2159 1.31388.86167 2.60387 1.76037 2.86665 1.9971.26277.23674 1.58743 1.17457 2.94369 2.08408 1.35626.90951 3.91527 2.65699 5.68669 3.88328 1.77143 1.22629 3.54675 2.44461 3.94517 2.70739.39842.26277 2.56938 1.71168 4.82435 3.2198 4.38247 2.93096 6.77095 4.48603 7.28513 4.74311.74702.37351 3.19407 2.0904 3.29134 2.30925.0584.13139.27339.24149.47777.24468.30858.005 2.23147 1.15587 3.57222 2.13835.18368.1346.75701.48426 1.27407.77702 5.87511 3.32654 5.89604 3.34532 8.53348 7.65831.29084.47559.52879 1.46199.52879 2.192 0 3.44032-5.019 5.03266-10.51105 3.33476-.78833-.24371-2.59534-.52899-4.01559-.63394-1.42025-.10495-3.28357-.39363-4.14072-.64152-.85714-.24789-2.7051-.54576-4.10658-.66193-1.40147-.11618-3.47979-.42049-4.61849-.67625-1.13869-.25575-4.0428-.60587-6.45357-.77802-2.41078-.17216-5.06243-.45025-5.89256-.61797-.83013-.16773-4.94932-.46583-9.15373-.66246-8.64151-.40413-41.07197-.15377-46.02565.35533-1.66425.17103-5.39089.45382-8.28143.62842-2.89054.17459-7.26218.52766-9.71475.78459-2.45258.25693-6.24771.62048-8.43362.8079-2.1859.18742-4.47922.47087-5.09626.62988-.61704.15901-3.27187.60006-5.89963.98011-4.0735.58915-6.96009 1.19927-8.28144 1.75039-.17518.0731-.89184-.15078-1.59258-.49743zm131.01308-9.95716c.26225-.31599-.40273-.87776-2.90728-2.45604-10.2523-6.46065-23.52626-15.38065-39.71745-26.68985-18.86138-13.17427-20.01691-14.01002-35.35534-25.57106-4.99275-3.76319-10.94104-8.11856-13.21844-9.67862-4.77118-3.26833-6.70099-4.80183-14.80794-11.76694-3.2426-2.78589-6.68396-5.56489-7.64748-6.17556-.99687-.63181-6.14902-5.4838-11.95522-11.25872-5.61185-5.58163-10.41583-10.14842-10.6755-10.14842-.57922 0-5.94077-5.41736-12.23099-12.35831-2.58772-2.85543-5.01157-5.38277-5.38631-5.61631-.82272-.51273-7.08365-.72246-33.96634-1.13784-10.42345-.16105-21.31672-.43639-24.20726-.61186-2.89053-.17547-7.11884-.39677-9.39623-.49178-10.55102-.44019-24.73988-1.30634-34.24054-2.09021-4.78157-.39451-9.3166-.0638-9.3166.33992 0 .34424-1.61325.40623.53687 3.81098 1.56368 2.47614 1.61788 2.56769 3.67694 6.21108.89105 1.57665 1.76227 3.08165 1.93605 3.34442.17378.26278.61018 1.05111.96979 1.75184.3596.70074 1.56656 2.99406 2.68212 5.09627 1.11557 2.10221 3.11849 6.04385 4.45095 8.7592 1.33246 2.71536 2.55663 5.15201 2.72038 5.41478.37288.59839 2.03824 4.05466 3.06946 6.37034.42907.96351.89974 1.97696 1.04592 2.25211.14619.27515.65758 1.49348 1.13643 2.70739.47885 1.21392 1.21036 2.93761 1.62556 3.83044.41521.89282.75493 1.75004.75493 1.90494 0 .1549.30628 1.07272.68063 2.03962.37434.9669.92941 2.403 1.23349 3.19132.30407.78833.63446 2.36947.7342 3.51364.19832 2.27497 5.27198 17.44116 6.94888 20.77158 1.12272 2.22977.64869 1.96577 15.88413 8.84634 2.01461.90984 4.3796 1.97794 5.25552 2.37357 2.94514 1.33022 11.06542 4.85483 23.88874 10.36888 7.00737 3.01318 14.31732 6.1628 16.24435 6.99917 1.92702.83638 9.75425 4.53708 17.39383 8.2238 7.63959 3.68672 14.72585 6.94607 15.74726 7.243 1.38886.40375 2.42412.48638 4.10602.32773 11.4779-1.08269 21.18504-1.84673 28.52656-2.24528 4.81756-.26154 9.4042-.55246 10.19253-.6465 2.67204-.31873 30.6878-1.11417 39.29274-1.11562 9.09494-.002 21.42204.66299 26.16241 1.41034 1.57666.24858 3.94165.54648 5.25553.66202 2.57648.22655 11.09238 1.4788 14.97028 2.20135 3.14996.58691 7.45444.63749 7.90642.0929zM373.847687 613.389922c-.85695-.15441-1.93194-.42189-2.38888-.59439-.45693-.1725-2.01828-.38326-3.46965-.46836-1.49754-.0878-2.94402-.35241-3.34442-.61179-.38806-.25138-1.45798-.54449-2.3776-.65136-.91962-.10687-2.13794-.40538-2.70739-.66336-.56944-.25797-1.53702-.56547-2.15016-.68332-.61315-.11786-1.40358-.39641-1.75652-.61902-.35293-.2226-1.14126-.51066-1.75184-.64013-.61057-.12946-1.54013-.48915-2.06568-.7993-.52556-.31015-1.47865-.65682-2.11799-.77036-.63933-.11355-1.32527-.40266-1.5243-.64247-.19903-.23982-.84459-.52659-1.43457-.63727-.58999-.11068-1.14677-.39424-1.23729-.63013-.0905-.23589-.66329-.52245-1.27282-.6368-.60952-.11435-1.27587-.4099-1.48076-.65678-.20489-.24688-.82846-.54843-1.3857-.67011-.55724-.12169-1.355-.48923-1.77279-.81677-.41779-.32754-.99112-.59871-1.27406-.60261-.28295-.004-.87278-.28737-1.31074-.62995-.43796-.34257-1.01129-.62924-1.27407-.63703-.26278-.008-.83611-.29446-1.27407-.63703-.43796-.34258-1.02779-.62606-1.31074-.62995-.28294-.004-.87888-.29375-1.3243-.64412-.44542-.35037-1.01808-.63703-1.27257-.63703-.2545 0-.99075-.35833-1.63612-.79629-.64537-.43796-1.29282-.79629-1.43877-.79629-.14596 0-.42456-.19181-.61911-.42623-.19455-.23442-.92877-.59851-1.63158-.80908-.70282-.21057-1.27785-.49774-1.27785-.63816 0-.14043-.57333-.42709-1.27407-.63703-.70074-.20995-1.27407-.51378-1.27407-.67518s-.58071-.44982-1.29047-.64094c-.70975-.19112-1.36468-.54088-1.45538-.77726-.0907-.23638-.66419-.52344-1.27441-.63791-.61021-.11448-1.18278-.39915-1.27236-.6326-.0896-.23346-.56644-.50517-1.05968-.60382-.49323-.0986-1.09323-.36556-1.33333-.59315-.2401-.22758-1.54531-.96165-2.90048-1.63126-1.35517-.66961-2.54612-1.35044-2.64656-1.51295-.10044-.16251-.46082-.29548-.80085-.29548-.34003 0-.88416-.26592-1.20917-.59094-.32501-.32501-.97001-.68607-1.43333-.80236-.46331-.11628-.84239-.3501-.84239-.51959 0-.1695-.46583-.53305-1.03518-.80789-4.76924-2.30226-5.16487-2.555-5.78743-3.69714-.63133-1.15822-.60827-1.31543.44855-3.05795l3.1616-.41581-4.99581-.62637c-7.48581-.0199-17.19164-1.16842-18.38786-2.17581-1.21507-1.02326-2.68359-1.95834-3.07552-1.95834-.58464 0-2.70808-1.54545-4.51143-3.28343-.87405-.84237-2.15981-1.8457-2.85723-2.22961-1.96222-1.08016-2.40804-1.35543-3.01095-1.85916-.30778-.25715-.95376-.63551-1.43552-.84082-.48176-.2053-.87592-.51968-.87592-.69862s-.16433-.32534-.36518-.32534-1.09667-.50423-1.99073-1.12051c-.89405-.61628-2.34221-1.6124-3.21813-2.21361-.87592-.6012-1.82016-1.27947-2.09831-1.50725-.27815-.22779-.72253-.55749-.98753-.73267-2.34735-1.55181-3.23234-2.226-5.00295-3.8113-4.12196-3.69056-5.04038-5.6718-3.52326-7.6005.89792-1.14153 2.54964-1.40211 4.5829-.72302.8879.29655 3.04769.66951 4.79953.8288 1.75185.15929 3.7585.50453 4.45924.7672.70073.26267 1.88681.48387 2.63572.49156.7489.008 2.17726.30065 3.17412.65102.99686.35037 2.46244.64332 3.25684.65101.7944.008 2.01769.23874 2.71843.51344.70074.2747 2.66823.62133 4.3722.7703 1.70397.14897 3.52434.49125 4.04527.76063.53043.2743 1.75987.49084 2.79442.49219 2.11753.003 5.80811.54701 6.2956.92842.18119.14176 1.88053.35383 3.77631.47128 1.89578.11744 4.04577.41444 4.77775.66001.73198.24556 3.15105.58975 5.37572.76486 2.22466.17511 4.35904.48654 4.74306.69206.38402.20552 2.50548.48601 4.71436.62331 2.2091.13731 4.5894.46828 5.29021.73558.70692.26963 2.76283.55296 4.61849.6365 1.84926.0832 3.91401.36729 4.61849.63535.70074.26664 2.73815.56237 4.52758.65718 1.81477.0962 5.05351.42665 5.54838.67634.48796.2462 1.04989.0257 2.71898.57986 1.78169.1037 3.73591.39597 4.34271.64951.6068.25354 2.37404.55799 3.92719.67655 1.55314.11856 3.64864.49114 4.65664.82796 1.00801.33681 2.69575.61239 3.75053.61239 1.10129 0 2.68945.27121 3.73026.63703 1.19845.42122 2.62898.63703 4.2226.63703 1.32557 0 3.19386.22832 4.15176.50738.95789.27906 3.38995.62731 5.40457.7739 4.46065.32456 6.30526.58537 6.51257.9208.0864.1398 1.75978.35559 3.71862.47954 1.95885.12395 4.16167.42911 4.89517.67814.73349.24903 2.84442.58396 4.69095.7443 1.84654.16034 3.68598.46741 4.08766.68238.40168.21497 2.24651.50547 4.09962.64556 1.85311.14009 3.87095.46132 4.4841.71386.61314.25253 2.57889.54337 4.36832.64631 1.78943.10295 3.65275.38861 4.14072.63482.48796.2462 2.32646.53136 4.08556.63367 1.75911.10232 3.62243.363 4.14072.57929.51829.21629 2.55731.56694 4.53116.77923 1.97385.21228 3.79015.55306 4.03623.75729.26323.21846 2.12938.4383 4.53335.53403 2.27912.0908 4.64935.36218 5.36002.61377.70073.24807 2.56405.58707 4.14071.75333 1.57666.16625 3.49384.52679 4.26039.80119.76656.2744 2.20448.49891 3.19538.49891.99091 0 2.58537.22753 3.54327.50563.95789.2781 3.18506.62729 4.94925.77599 1.76419.1487 3.77084.48221 4.45923.74112.68839.25891 2.58218.55348 4.20844.6546 1.62625.10112 3.34624.38343 3.82219.62735.47596.24392 2.07218.54888 3.54717.67769 1.47499.12881 3.62452.5038 4.77674.8333 1.15221.3295 2.40689.5991 2.78817.5991.38128 0 1.13424.37107 1.67323.8246.8194.68949.97999 1.05303.97999 2.21854 0 1.93648-1.29168 3.33571-4.41853 4.78644-1.33627.61998-2.64458 1.26298-2.90735 1.42888-.26278.16592-.83611.45926-1.27407.65189-.43796.19263-1.01129.47916-1.27407.63675-.26277.15759-.69277.37545-.95555.48414-.26277.1087-1.22139.53778-2.13026.95353-.90887.41574-1.91432.75589-2.23433.75589-.32002 0-1.1167.28667-1.77041.63704-.65371.35036-1.51159.64018-1.90639.64402-.39479.004-1.29259.26811-1.9951.58726-.70251.31914-1.83429.68475-2.51507.81246-.68078.12771-1.53933.42954-1.90788.67072-.36855.24118-1.28745.53705-2.042.65748-.75455.12044-1.89568.48602-2.53585.81239-.64017.32638-1.61775.59341-2.17241.59341-.55465 0-1.18106.20798-1.39202.46217-.21096.25419-1.05267.5613-1.87047.68246-.8178.12117-1.98645.48652-2.597.8119-.61055.32538-1.51208.59161-2.00342.59161-.49132 0-1.42511.26651-2.07507.59224-.64996.32574-1.801.68738-2.55787.80364-.75686.11627-1.68852.41452-2.07035.66278-.38184.24826-1.44424.54975-2.3609.66998-.91666.12023-1.82252.4064-2.01302.63594-.1905.22954-1.16049.51873-2.15554.64264-.99505.1239-2.11123.42271-2.4804.66402-.36918.24131-1.5875.56547-2.70739.72035-1.1199.15489-2.6095.50384-3.31024.77545-.70074.27161-1.87792.50014-2.61597.50783-.73805.008-2.02804.28023-2.86665.60565-.83861.32542-2.4564.67551-3.5951.77798-1.1387.10247-2.57202.39188-3.18517.64313-.61314.25125-2.30497.55667-3.75962.67872-1.45464.12204-3.12629.42307-3.71476.66895-.58848.24588-2.69496.53759-4.68107.64823-1.98612.11065-4.25611.42084-5.04444.68932-1.12734.38392-3.40527.50874-10.67031.58464-5.08034.0531-9.93811-.0299-10.79506-.18425zm17.00614-8.59547c1.66425-.15904 4.60256-.44066 6.52959-.62581 1.92702-.18515 4.50701-.54105 5.73329-.79089 1.22629-.24984 2.80295-.54352 3.50369-.65261 3.49566-.54424 16.29205-3.62468 22.4323-5.40006 4.80681-1.38984 11.25717-3.09524 16.42672-4.34304 3.76944-.90984 17.21035-4.92486 24.66346-7.36738 2.98767-.97912 3.00042-.98775 2.29759-1.55687-.38871-.31476-1.74067-.78387-3.00434-1.04247-3.4357-.70307-15.59148-2.48139-22.04561-3.22515-5.9833-.68949-11.25044-1.41508-13.85547-1.90872-1.31388-.24897-3.10554-.54583-3.98146-.6597-.87592-.11386-4.5309-.7048-8.12217-1.31318-7.08032-1.19946-9.8933-1.6675-15.76657-2.62337-3.64901-.59386-6.37743-1.04459-12.74067-2.10473-4.88942-.81459-10.68917-1.72854-14.01472-2.2085-12.13174-1.75091-19.8782-2.93853-25.32207-3.88217-10.731-1.86009-25.65894-4.11213-40.92938-6.17461-8.77391-1.18503-35.49399-5.04918-39.49606-5.71174-7.28643-1.20632-9.56715-1.60777-11.94437-2.10243-3.38235-.70381-6.79892-1.07001-7.12928-.76414-.15465.14318-.19969.47269-.1001.73224.0996.25955 4.4377 3.30404 9.64022 6.76554 5.20252 3.46149 10.00377 6.84374 10.66945 7.51611.7175.72471 1.64052 1.30163 2.26682 1.41685.58108.10691 1.40982.41541 1.84167.68557.44738.27988 1.81769.55451 3.18517.63835 1.79666.11017 2.54323.29721 2.9698.74406.43547.45617 1.03624.59875 2.54813.60474 1.10218.004 2.81133.28648 3.85924.63703 1.58209.52924 2.75074.6292 7.35614.6292 4.9402 0 5.86565.84639 6.3511 1.38281.44682.49372.88686-.15503 4.25039.0347 2.97247.16771 4.19766.36089 4.60437.72599.3048.27362 1.30813.56933 2.22962.65714 1.13793.10843 1.80896.34899 2.09164.74984.33657.47726.83639.5902 2.61194.5902 1.74366 0 2.25872.11256 2.50169.54673.23411.41832.92982.59542 2.96211.75404 2.45678.19175 3.78423.50362 7.59314 1.78392.78833.26498 2.24665.66693 3.24072.89323.99406.2263 2.13678.64216 2.53937.92415.40259.28199 1.18243.51271 1.73297.51271.55054 0 1.36542.28666 1.81084.63703.44542.35037 1.01023.63703 1.25514.63703 1.04596 0 2.61049 1.59711 2.97646 3.03843.20122.79251.27775 1.49537.17006 1.56193-.10769.0666-1.07562.30273-2.15096.52484-1.52551.31509-2.43463.32283-4.13711.0352-1.20008-.20275-3.25255-.45523-4.56104-.56107-1.3085-.10584-2.67016-.35253-3.02591-.54821-.35575-.19568-2.08015-.52272-3.83199-.72675-1.75184-.20403-4.11683-.59512-5.25553-.86909-4.24962-1.02246-8.34745-1.83491-10.26651-2.03549l-1.9796-.20691 1.14847 1.00837c.63166.5546 1.4242 1.00837 1.7612 1.00837.337 0 1.09842.35833 1.69205.79629.59362.43796 1.32058.79629 1.61546.79629.29488 0 .73136.23521.96995.5227.60359.72728 10.05495 5.35648 16.8441 8.25011 15.82448 6.7446 24.22833 9.18001 34.55904 10.01508 2.45258.19826 5.24757.47751 6.21108.62057 2.42671.36029 10.37005.37598 14.01473.0277zM558.518777 463.490372c-.78562-.43019-1.64955-.78216-1.91986-.78216-.2703 0-.77418-.19651-1.11973-.43668-.34555-.24018-1.40683-.60258-2.35839-.80535-.95157-.20277-1.90473-.51358-2.11814-.6907-.21342-.17712-1.29327-.46782-2.39968-.646-1.10641-.17818-2.1733-.45812-2.37086-.62208-.19757-.16397-1.34914-.49853-2.55906-.74347-1.20991-.24494-2.62984-.5977-3.15539-.7839-1.26889-.44957-4.86479-1.30228-7.72797-1.83257-1.27226-.23564-2.57329-.56763-2.89119-.73776-.31789-.17013-1.35528-.40199-2.3053-.51523-.95001-.11323-2.55204-.47979-3.56004-.81457-1.00801-.33477-2.31581-.60868-2.90624-.60868-.59042 0-1.70067-.2245-2.46723-.4989-.76656-.2744-2.65397-.63219-4.19425-.79509-1.54028-.1629-3.1886-.49344-3.66294-.73453-.47434-.24109-2.36742-.53817-4.20686-.66018-1.83943-.122-4.34775-.43163-5.57404-.68806-1.22628-.25642-5.23959-.59855-8.91846-.76029-10.47968-.46071-17.10783-.98985-18.2371-1.45589-1.43309-.59144-1.91123-1.89349-1.09784-2.98956.33213-.44755.87672-.95881 1.2102-1.13611.61496-.32698 1.19409-.68867 4.1865-2.61469.91798-.59085 2.13631-1.29239 2.70739-1.55899.57107-.2666 1.61165-.82416 2.31239-1.23903 1.04105-.61634 20.28937-10.41149 23.34428-11.87951.47464-.22808 1.07797-.54139 1.34075-.69625.26278-.15485 1.4811-.80712 2.70739-1.4495 1.22629-.64237 3.37628-1.78647 4.77775-2.54243 1.40147-.75596 6.05978-3.14195 10.35179-5.3022 4.29201-2.16024 7.87532-4.00939 7.96291-4.10923.0876-.0998 1.26526-.74492 2.61703-1.43354 3.80311-1.93739 4.70707-2.42292 7.26569-3.90251 1.30909-.75703 2.81017-1.61702 3.33572-1.9111.52555-.29409 1.04006-.6493 1.14335-.78936.1033-.14006 1.06078-.78506 2.12775-1.43332 3.46985-2.1082 6.49087-4.27831 13.92879-10.00557 4.0209-3.09612 12.12629-9.63119 12.32894-9.94036.82254-1.25487 1.45016-1.88488 2.13838-2.14654 1.02066-.38806 10.12335.23724 12.28808.84412.87592.24557 3.06979.59683 4.87527.78059 1.80549.18376 3.5544.47951 3.88647.65723.33208.17773 2.75837.46779 5.39177.6446 2.6334.17681 5.18446.47241 5.66903.65689.48457.18448 2.88769.46899 5.34027.63224 2.45257.16325 5.03256.44394 5.73329.62377.70074.17982 3.75752.46515 6.79285.63407 3.03533.16892 6.26031.51192 7.16662.76223.90632.2503 3.15284.54858 4.99227.66284 1.83943.11426 3.98942.35394 4.77775.53262.78833.17868 2.83583.51303 4.55.74299 2.47816.33245 3.34279.59058 4.22035 1.25992 1.93435 1.4754 1.62147 2.44677-2.97186 9.22645-1.29678 1.91403-2.44417 3.70568-2.54975 3.98145-.1782.46546-1.32868 2.31863-1.89319 3.04954-.13531.17519-1.2327 1.82351-2.43865 3.66294s-2.45893 3.73279-2.78439 4.20745c-.32546.47466-.59174.94511-.59174 1.04545 0 .17537-2.31232 3.85606-3.54535 5.6434-.32745.47466-.59537.94629-.59537 1.04807 0 .10178-.26558.57342-.59018 1.04808-1.40896 2.06036-3.56676 5.46385-4.55317 7.18173-.58725 1.02271-1.31452 2.24104-1.61615 2.70739-.53335.8246-1.07167 1.72236-2.60936 4.3516-.40982.70073-1.57255 2.89774-2.58384 4.88223-1.0113 1.98449-2.02777 3.79721-2.25883 4.02828-.53588.53587-3.1172 1.33581-6.17353 1.91314-2.3923.4519-4.8206 1.04184-7.80366 1.89584-.87592.25076-2.52424.67981-3.66294.95343-3.69211.88719-5.87911 1.48175-6.52959 1.77513-.35036.15803-1.49702.51903-2.54813.80223-1.0511.28319-2.84276.78856-3.98146 1.12305-1.13869.33448-3.07368.88954-4.29997 1.23346-1.22629.34393-2.65961.77163-3.18517.95045-.52555.17882-2.24554.70186-3.82219 1.16232-1.57666.46046-3.65498 1.09502-4.61849 1.41014-.96352.31512-2.25351.67721-2.86665.80463-.61315.12742-1.264.35114-1.44636.49714-.18234.146-1.04002.42424-1.90595.6183-.86593.19405-1.79172.54142-2.05733.77192-.82488.71585-2.62433 1.36398-4.81962 1.73594-2.7361.4636-2.74455.46273-4.41758-.4534zm14.8061-10.2055c7.00736-1.85516 15.82231-4.2298 19.58876-5.27698 13.48511-3.74924 17.41869-4.7833 21.81616-5.73505 3.16068-.68407 4.68152-1.16575 5.21623-1.65208 1.23962-1.12746 3.20636-4.41049 9.18858-15.33825 4.82048-8.80558 7.60687-13.33948 11.7507-19.1202 6.91485-9.64635 8.61355-12.29683 8.25397-12.87864-.37872-.61278-9.16251-1.85323-24.85175-3.50957-12.76425-1.34755-20.78503-2.3629-30.41834-3.85066-4.64238-.71697-9.44831-1.32776-10.67984-1.35731-2.12903-.0511-2.32346.007-3.95294 1.17688-.94258.67685-2.94494 2.26979-4.44969 3.53987-4.78944 4.04251-15.60672 12.06228-21.36913 15.84275-6.86656 4.50486-10.79513 6.7227-23.58312 13.31366-5.51121 2.84048-12.81536 6.63515-16.23145 8.4326-3.41609 1.79745-9.65105 4.99899-13.85547 7.11453-11.32342 5.69763-17.23022 9.04636-16.8998 9.58099.24706.39974 1.8697.5968 10.70975 1.30058 8.97358.71442 14.95337 1.46607 23.07143 2.90004 2.97813.52606 8.20976 1.44317 11.62585 2.03802 8.74503 1.52279 14.35756 2.73994 22.61468 4.9043 3.94164 1.03318 7.73995 1.89405 8.44069 1.91303.70771.0192 6.93759-1.46487 14.01473-3.33851z"/>
	<path d="M420.37542 354.57613c-4.25911-2.19781-13.92336-7.26532-15.76657-8.2673-2.32019-1.26127-2.86839-1.60038-9.71475-6.00927-13.73517-8.84511-22.03095-14.66377-31.205-21.88717-4.28253-3.37195-4.37987-3.43524-6.10882-3.97239-2.33211-.72453-5.32364-2.69778-13.88772-9.16054-7.48459-5.64813-7.6188-5.74681-12.024-8.84119-3.18664-2.23843-4.51717-3.28098-5.77457-4.52474-.89863-.88887-1.67601-1.7489-1.72751-1.91117-.11221-.35355.5422-1.09357 1.27428-1.44097.28251-.13406 3.02561-.54824 6.38739-.96443 3.24073-.4012 6.93139-.8771 8.20147-1.05755 2.44201-.34695 14.98892-2.77446 21.81839-4.22129 2.23359-.47319 4.73314-.90785 5.55454-.9659 1.37941-.0975 1.5132-.0808 1.75184.21799.14211.17794 1.54509 1.9629 3.11774 3.96657 5.961 7.59476 15.71167 19.88362 18.8757 23.78921 1.8095 2.2336 3.71163 4.63441 4.22696 5.33515.51533.70074 1.80514 2.38489 2.86624 3.74257 1.06111 1.35768 2.74618 3.5435 3.74461 4.85738.99842 1.31388 2.64741 3.42803 3.66441 4.69812 2.44437 3.05265 3.83935 4.94646 5.2948 7.18817.66013 1.01676 2.30593 3.34493 3.65731 5.17371 5.96806 8.07636 8.78847 12.60794 8.99666 14.45503.0699.61972.0401.69818-.29885.78892-.62916.16841-.78182.11679-2.92455-.98891zM506.17212 406.01521c0-1.04218 3.49483-6.08417 6.91281-9.97309.92382-1.0511 3.16842-3.66378 4.98801-5.80594 1.81959-2.14216 3.66796-4.29215 4.10748-4.77775 1.09385-1.20852 3.22999-3.87543 8.36098-10.4384 7.90533-10.1116 12.34974-15.54812 13.21364-16.16327 1.16695-.83094 2.37779-.40519 5.02074 1.76534 3.25664 2.67455 11.12744 10.86736 11.46649 11.93562.0866.27283-.0364.49613-.57631 1.04625-.37752.38467-.76107.69955-.85232.69973-.49808.00096-5.70342 3.03408-10.45437 6.0916-2.54348 1.63688-4.68427 3.13049-7.24698 5.05615-10.28626 7.72923-13.518 9.96397-18.79382 12.99584-3.17215 1.82295-11.96779 6.3247-13.94753 7.13857-1.33925.55056-2.19882.71841-2.19882.42935zM556.17922 455.92789c-1.27008-.29266-4.99696-1.21255-8.28194-2.0442-8.25935-2.09099-11.70272-2.77153-31.93077-6.31074-7.4493-1.30337-12.91421-1.976-22.69431-2.79323-6.45794-.53963-9.86431-.91652-10.20898-1.12954-.63835-.39452 3.99418-3.09519 14.43043-8.41261 16.2597-8.28457 41.91023-21.6497 46.26343-24.10542 8.88394-5.0116 20.13814-12.89522 30.97573-21.69867 2.1898-1.77879 4.47499-3.56278 5.07818-3.96443 1.01678-.67704 1.18368-.73466 2.28949-.7905 1.50022-.0758 3.46411.13306 9.67297 1.02852 11.74634 1.69409 13.94102 1.99724 18.3147 2.52981 2.54017.3093 7.27014.84941 10.51105 1.20023 14.63515 1.58423 23.18518 2.63028 25.44151 3.11264l.43796.0936v5.42406l-1.22481 1.77436c-.67365.9759-2.13511 3.0355-3.24772 4.57689-5.17127 7.16426-7.48301 10.92711-14.30056 23.27726-5.21597 9.44884-6.93386 12.23429-8.01354 12.9934-.56019.39387-2.01333.81815-5.82281 1.70011-4.48199 1.03765-7.77065 1.90084-18.24785 4.7896-15.14028 4.17446-28.20578 7.6109-33.8168 8.89438-2.26248.51753-2.80911.50338-5.62536-.14555zm13.43993-9.7173c2.68977-.3269 4.00276-.62025 10.41571-2.32703 2.95254-.78581 8.09157-2.11374 11.42007-2.95096 4.19053-1.05404 6.23453-1.64016 6.64589-1.90572.70677-.45628 1.2374-1.41597 1.2374-2.23795 0-.32637.14074-1.09964.31276-1.71837.17201-.61873.50164-2.27163.7325-3.6731.23087-1.40147.56313-3.1573.73838-3.90183.27931-1.18668.32873-2.09649.40053-7.37415.0534-3.92188.0195-6.61699-.0973-7.73181-.32596-3.11307-1.89443-8.54239-3.3468-11.58511-1.09779-2.29985-2.96254-5.43736-3.73356-6.28184-.36312-.3977-1.11246-1.30605-1.66521-2.01854-1.42724-1.83969-1.47098-1.86093-3.60206-1.74977-4.53707.23666-8.5487 1.66533-12.71427 4.52796-1.11789.76823-3.6611 2.50761-5.65159 3.86529-1.99048 1.35767-5.48332 3.7505-7.76185 5.31739-2.27854 1.56689-4.86811 3.30476-5.75461 3.86192-.8865.55717-1.92566 1.2915-2.30925 1.63183l-.69743.6188-.0541 5.61266c-.0804 8.34938.10079 9.83989 1.74037 14.31486 2.2111 6.03487 7.25049 14.32079 9.62103 15.81922.52243.33022.45502.33208 4.12332-.11375zM371.00809 604.01232c-10.10704-1.09077-16.81099-2.86203-29.04884-7.67501-6.22144-2.44682-27.91817-12.92474-28.40948-13.71969-.39311-.63607 1.25242-.48866 5.76438.51636 5.53146 1.23211 12.92228 2.53944 19.27202 3.40894 4.08919.55996 5.59472.602 7.0946.19813 2.11561-.56968 2.18496-.7351 1.24807-2.97739-.49795-1.19175-1.17568-1.79335-2.81532-2.49904-4.75216-2.0453-14.44828-4.92233-17.67368-5.24413-1.3771-.1374-2.90366-.52415-3.39234-.85945-.48868-.33531-1.71503-.60965-2.72523-.60965-1.01019 0-2.02927-.19107-2.26463-.42461s-1.23874-.62744-2.22973-.87532c-.99099-.24789-2.61262-.66008-3.60361-.91599-.99099-.25591-3.1295-.47012-4.75225-.47603-1.67226-.006-3.18353-.24383-3.48846-.54876-.32232-.32232-2.8416-.66556-6.28379-.85615-6.33893-.35098-11.2962-1.10364-13.4715-2.04539-.78068-.33797-2.0454-.6145-2.81048-.6145-2.14302 0-5.40582-1.427-8.3827-3.66622-1.48649-1.11814-6.19045-4.4043-10.45325-7.30259-7.21149-4.9031-8.57888-5.96739-8.17294-6.36129.19004-.18439 5.49658.61919 14.37934 2.1775 3.61018.63334 20.73856 3.17608 38.06306 5.65053 17.32451 2.47444 37.07342 5.40831 43.88649 6.51971 6.81306 1.11139 16.64414 2.65216 21.84684 3.42392 5.20271.77177 21.80278 3.43014 36.88905 5.9075 15.08628 2.47735 32.1133 5.10589 37.83784 5.8412 17.58341 2.25854 25.33127 3.65345 24.82677 4.46975-.43188.6988-16.04193 5.44882-30.63474 9.32193-22.4458 5.95738-26.47102 6.97373-32.65766 8.2459-12.90073 2.65279-25.53732 3.31733-37.83783 1.98984zM403.67278 438.92212c-9.23783-1.56136-22.94886-3.07397-32.10478-3.54181-15.67681-.80104-53.33914.61983-81.64099 3.08004-5.82443.5063-9.86119.66311-10.93211.42464-.93384-.20794-8.94059-3.80471-17.7928-7.99283-8.8522-4.18812-24.30437-11.15179-34.33815-15.47482-20.68612-8.91256-35.46181-15.5118-39.37658-17.58668-2.38874-1.26607-2.79133-1.6935-3.88528-4.12512-1.62853-3.61984-5.687-15.94202-6.45704-19.60459-1.43618-6.83103-6.04868-17.64779-14.77307-34.64425-3.23143-6.29533-7.47512-14.17984-9.43042-17.52114-3.64569-6.22991-4.08204-7.44592-2.84257-7.92155 1.16542-.44722 6.67591-.31511 16.67419.39972 17.94864 1.28325 35.19716 2.03734 56.93761 2.48924 12.01577.24976 25.19144.57239 29.27928.71696l7.43243.26285 4.46691 4.79827c2.4568 2.63905 6.89166 7.12936 9.85525 9.97846s9.56834 9.24996 14.67723 14.22414c5.1089 4.97417 10.70782 10.13456 12.44205 11.46752 1.73424 1.33295 6.1937 4.9734 9.90991 8.08987 3.71622 3.11648 8.88514 7.16857 11.48649 9.00465s9.90536 7.2208 16.23112 11.96606c17.85121 13.39102 52.02393 37.17035 68.56617 47.71225 3.40654 2.17088 6.1937 4.12608 6.1937 4.34489 0 .63186-5.19333.36344-10.57855-.54677zm-130.7552-19.01711c3.17164-2.69244 7.62135-7.69734 11.84948-13.32793 7.86721-10.47676 12.39247-23.19656 12.35514-34.72838-.0194-5.99396-.35059-6.53934-7.87087-12.96147-6.60395-5.6396-9.10312-8.12506-15.86796-15.78096-3.35115-3.79257-7.49722-8.07757-9.21348-9.52224-5.4967-4.62685-11.23101-6.78038-18.05444-6.78038h-3.81665l-3.34669 3.50294c-6.49444 6.79766-12.80374 20.29012-16.37152 35.01058-2.58481 10.66478-3.12811 15.76481-2.59239 24.33488.32257 5.16026.31675 7.89966-.0195 9.15927-.5697 2.13439-.0575 2.99427 2.3907 4.01341.86712.36096 4.81982 2.12992 8.78379 3.93102 3.96396 1.80111 10.65315 4.62981 14.86486 6.28603 12.14468 4.77577 17.41623 6.96611 19.59459 8.14161 3.05588 1.64903 4.07662 1.47065 7.3149-1.27838z" fill="#fff"/>
</svg>